<svg width="50" height="50" viewBox="0 0 50 50" fill="none" xmlns="http://www.w3.org/2000/svg">
<circle cx="25" cy="25" r="25" fill="#3B5D50"/>
<path d="M30.3097 19.2756C30.196 18.1297 29.7083 17.2396 28.8466 16.6051C27.9848 15.9706 26.8153 15.6534 25.3381 15.6534C24.3343 15.6534 23.4867 15.7955 22.7955 16.0795C22.1042 16.3542 21.5739 16.7377 21.2045 17.2301C20.8447 17.7225 20.6648 18.2812 20.6648 18.9062C20.6458 19.4271 20.7547 19.8816 20.9915 20.2699C21.2377 20.6581 21.5739 20.9943 22 21.2784C22.4261 21.553 22.9186 21.7945 23.4773 22.0028C24.036 22.2017 24.6326 22.3722 25.267 22.5142L27.8807 23.1392C29.1496 23.4233 30.3144 23.8021 31.375 24.2756C32.4356 24.7491 33.3542 25.3314 34.1307 26.0227C34.9072 26.714 35.5085 27.5284 35.9347 28.4659C36.3703 29.4034 36.5928 30.4782 36.6023 31.6903C36.5928 33.4706 36.1383 35.0142 35.2386 36.321C34.3485 37.6184 33.0606 38.6269 31.375 39.3466C29.6989 40.0568 27.6771 40.4119 25.3097 40.4119C22.9612 40.4119 20.9157 40.0521 19.1733 39.3324C17.4403 38.6127 16.0862 37.5473 15.1108 36.1364C14.1449 34.7159 13.6383 32.9593 13.5909 30.8665H19.5426C19.6089 31.8419 19.8883 32.6562 20.3807 33.3097C20.8826 33.9536 21.5502 34.4413 22.3835 34.7727C23.2263 35.0947 24.178 35.2557 25.2386 35.2557C26.2803 35.2557 27.1847 35.1042 27.9517 34.8011C28.7282 34.4981 29.3295 34.0767 29.7557 33.5369C30.1818 32.9972 30.3949 32.3769 30.3949 31.6761C30.3949 31.0227 30.2008 30.4735 29.8125 30.0284C29.4337 29.5833 28.875 29.2045 28.1364 28.892C27.4072 28.5795 26.5123 28.2955 25.4517 28.0398L22.2841 27.2443C19.8314 26.6477 17.8949 25.715 16.4744 24.446C15.054 23.1771 14.3485 21.4678 14.358 19.3182C14.3485 17.5568 14.8172 16.018 15.7642 14.7017C16.7206 13.3854 18.0322 12.358 19.6989 11.6193C21.3655 10.8807 23.2595 10.5114 25.3807 10.5114C27.5398 10.5114 29.4242 10.8807 31.0341 11.6193C32.6534 12.358 33.9129 13.3854 34.8125 14.7017C35.7121 16.018 36.1761 17.5426 36.2045 19.2756H30.3097Z" fill="white"/>
</svg>
